# xmcd
#
# Track frame offsets: 
#        150
#        11261
#        34562
#        51708
#        70792
#        84200
#        103359
#        117074
#        142250
#        164653
#
# Disc length: 2422 seconds
#
# Revision: 2
# Processed by: cddbd v1.5.2PL0 Copyright (c) Steve Scherf et al.
# Submitted via: ExactAudioCopy v0.99pb4
#
DISCID=8709740a
DTITLE=Ella Fitzgerald - Love Letters From Ella
DYEAR=2007
DGENRE=Jazz
TTITLE0=Please Don't Talk About Me When I'm Gone
TTITLE1=Cry Me A River
TTITLE2=You Turned The Table On Me
TTITLE3=I've Got The World On A String
TTITLE4=Witchcraft
TTITLE5=My Old Flame
TTITLE6=The One I Love(Belongs To Somebody Else)
TTITLE7=Take Love Easy
TTITLE8=Our Love Is Here To Stay
TTITLE9=Some Other Spring
EXTD=YEAR: 2007
EXTT0=
EXTT1=
EXTT2=
EXTT3=
EXTT4=
EXTT5=
EXTT6=
EXTT7=
EXTT8=
EXTT9=
PLAYORDER=
